<svg display="none" xmlns="http://www.w3.org/2000/svg">
    <symbol id="arrow-left" viewBox="0 0 43 12">
        <g>
            <path d="M0.469669 6.53033C0.176777 6.23743 0.176777 5.76256 0.469669 5.46967L5.24264 0.696696C5.53553 0.403802 6.01041 0.403802 6.3033 0.696696C6.5962 0.989589 6.5962 1.46446 6.3033 1.75736L2.06066 6L6.3033 10.2426C6.59619 10.5355 6.59619 11.0104 6.3033 11.3033C6.01041 11.5962 5.53553 11.5962 5.24264 11.3033L0.469669 6.53033ZM43 6.75L1 6.75L1 5.25L43 5.25L43 6.75Z"/>
        </g>
    </symbol>
    <symbol id="arrow-right" viewBox="0 0 43 12">
        <g>
            <path d="M42.5303 6.53033C42.8232 6.23743 42.8232 5.76256 42.5303 5.46967L37.7574 0.696696C37.4645 0.403802 36.9896 0.403802 36.6967 0.696696C36.4038 0.989589 36.4038 1.46446 36.6967 1.75736L40.9393 6L36.6967 10.2426C36.4038 10.5355 36.4038 11.0104 36.6967 11.3033C36.9896 11.5962 37.4645 11.5962 37.7574 11.3033L42.5303 6.53033ZM6.55671e-08 6.75L42 6.75L42 5.25L-6.55671e-08 5.25L6.55671e-08 6.75Z"/>
        </g>
    </symbol>
    <symbol id="arrow-down" viewBox="0 0 8 21">
        <g>
            <path d="M3.64645 20.3536C3.84171 20.5488 4.15829 20.5488 4.35355 20.3536L7.53553 17.1716C7.7308 16.9763 7.7308 16.6597 7.53553 16.4645C7.34027 16.2692 7.02369 16.2692 6.82843 16.4645L4 19.2929L1.17157 16.4645C0.976311 16.2692 0.659729 16.2692 0.464467 16.4645C0.269205 16.6597 0.269205 16.9763 0.464467 17.1716L3.64645 20.3536ZM3.5 2.18557e-08L3.5 20L4.5 20L4.5 -2.18557e-08L3.5 2.18557e-08Z"/>
        </g>
    </symbol>
    <symbol id="arrow-long-down" viewBox="0 0 8 315">
        <g>
            <path d="M3.64646 314.354C3.84172 314.549 4.1583 314.549 4.35357 314.354L7.53555 311.172C7.73081 310.976 7.73081 310.66 7.53555 310.464C7.34029 310.269 7.0237 310.269 6.82844 310.464L4.00001 313.293L1.17159 310.464C0.976324 310.269 0.659742 310.269 0.46448 310.464C0.269217 310.66 0.269217 310.976 0.46448 311.172L3.64646 314.354ZM3.5 2.18557e-08L3.50001 314L4.50001 314L4.5 -2.18557e-08L3.5 2.18557e-08Z"/>
        </g>
    </symbol>
    <symbol id="arrow-up" viewBox="0 0 12 27">
        <g>
            <path d="M6.53033 0.469669C6.23744 0.176777 5.76256 0.176777 5.46967 0.469669L0.6967 5.24264C0.403807 5.53553 0.403807 6.01041 0.6967 6.3033C0.989593 6.59619 1.46447 6.59619 1.75736 6.3033L6 2.06066L10.2426 6.3033C10.5355 6.59619 11.0104 6.59619 11.3033 6.3033C11.5962 6.01041 11.5962 5.53553 11.3033 5.24264L6.53033 0.469669ZM6.75 27L6.75 1L5.25 1L5.25 27L6.75 27Z"/>
        </g>
    </symbol>
    <symbol id="arrow-angle" viewBox="0 0 19 11">
        <g>
            <path d="M1 1L9.5 10L18 1"/>
        </g>
    </symbol>
    <symbol id="vk" viewBox="0 0 41 29">
        <g>
            <path d="M40.6346 25.4493C40.5244 25.229 39.8427 23.4601 36.5624 19.8243C33.1284 16.0172 33.5897 16.6354 37.7259 10.0524C40.245 6.0433 41.2522 3.59497 40.937 2.54832C40.6371 1.55062 38.7843 1.81382 38.7843 1.81382L32.6236 1.85666C32.6236 1.85666 32.1674 1.78321 31.8266 2.02499C31.496 2.2637 31.2833 2.81457 31.2833 2.81457C31.2833 2.81457 30.3069 5.91782 29.0051 8.55589C26.2604 14.1228 25.161 14.4166 24.7126 14.0707C23.6696 13.2659 23.931 10.8328 23.931 9.10676C23.931 3.71127 24.6152 1.46187 22.5958 0.880395C21.9244 0.68759 21.4323 0.559053 19.7179 0.53763C17.5191 0.510086 15.656 0.546811 14.6028 1.16195C13.9006 1.57205 13.3599 2.48711 13.6905 2.53914C14.0979 2.6034 15.0205 2.83599 15.51 3.6317C16.1429 4.65693 16.1199 6.96448 16.1199 6.96448C16.1199 6.96448 16.4838 13.3148 15.2716 14.1044C14.4388 14.6461 13.2984 13.5413 10.851 8.48856C9.59784 5.90252 8.64964 3.04104 8.64964 3.04104C8.64964 3.04104 8.46769 2.50853 8.14223 2.22391C7.74758 1.87809 7.19404 1.76791 7.19404 1.76791L1.33573 1.81076C1.33573 1.81076 0.456731 1.84136 0.133832 2.29736C-0.153189 2.7044 0.110768 3.54295 0.110768 3.54295C0.110768 3.54295 4.69798 16.3569 9.88999 22.8174C14.654 28.7393 20.0613 28.3506 20.0613 28.3506H22.5112C22.5112 28.3506 23.2518 28.2527 23.6286 27.766C23.9771 27.3192 23.9643 26.4807 23.9643 26.4807C23.9643 26.4807 23.9156 22.5542 25.4429 21.9758C26.9472 21.4065 28.8795 25.7707 30.9271 27.4508C32.475 28.7209 33.6512 28.4424 33.6512 28.4424L39.1277 28.3506C39.1277 28.3506 41.9928 28.1394 40.6346 25.4493Z"/>
        </g>
    </symbol>
    <symbol id="instagram" viewBox="0 0 31 31">
        <g>
            <path d="M22.6086 0H8.39142C3.76431 0 0 3.76431 0 8.39142V22.6088C0 27.2357 3.76431 31 8.39142 31H22.6088C27.2357 31 31 27.2357 31 22.6088V8.39142C31 3.76431 27.2357 0 22.6086 0V0ZM15.5 23.9763C10.8261 23.9763 7.02367 20.1739 7.02367 15.5C7.02367 10.8261 10.8261 7.02367 15.5 7.02367C20.1739 7.02367 23.9763 10.8261 23.9763 15.5C23.9763 20.1739 20.1739 23.9763 15.5 23.9763ZM24.179 9.02267C22.7978 9.02267 21.6744 7.89924 21.6744 6.51801C21.6744 5.13679 22.7978 4.01312 24.179 4.01312C25.5602 4.01312 26.6839 5.13679 26.6839 6.51801C26.6839 7.89924 25.5602 9.02267 24.179 9.02267Z"/>
            <path d="M15.5 9C11.9161 9 9 11.9158 9 15.5C9 19.0839 11.9161 22 15.5 22C19.0842 22 22 19.0839 22 15.5C22 11.9158 19.0842 9 15.5 9Z"/>
        </g>
    </symbol>
    <symbol id="youtube" viewBox="0 0 31 33">
        <g>
            <path d="M30.2815 16.2042C29.9043 14.7675 28.5638 13.7078 26.9503 13.5501C23.1302 13.176 19.2619 13.1742 15.4125 13.176C11.5615 13.1742 7.69398 13.176 3.87275 13.5501C2.26005 13.7081 0.920282 14.7679 0.543474 16.2042C0.00644113 18.2499 0 20.483 0 22.5895C0 24.6959 4.79905e-08 26.9287 0.537033 28.9744C0.913841 30.4107 2.2536 31.4704 3.86712 31.6285C7.68754 32.0029 11.5551 32.0044 15.4057 32.0029C19.2567 32.0047 23.1234 32.0029 26.945 31.6285C28.5577 31.4704 29.8983 30.4107 30.2751 28.9744C30.8117 26.9287 30.8146 24.6959 30.8146 22.5895C30.8141 20.4827 30.8182 18.2499 30.2815 16.2042ZM8.78938 17.7897H6.55912V28.1783H4.48748V17.7897H2.29789V16.0881H8.78938V17.7897ZM14.4161 28.1786H12.5526V27.1958C11.8123 27.9397 11.1094 28.3025 10.4246 28.3025C9.82439 28.3025 9.41135 28.0893 9.22496 27.633C9.12351 27.3606 9.06071 26.9294 9.06071 26.2934V19.1699H10.9226V25.8026C10.9226 26.1851 10.9226 26.3838 10.9395 26.4374C10.9842 26.6908 11.1255 26.8193 11.3751 26.8193C11.7487 26.8193 12.1392 26.5669 12.5522 26.0549V19.1699H14.4157L14.4161 28.1786ZM21.4906 25.4747C21.4906 26.3079 21.4265 26.9082 21.3022 27.29C21.0534 27.9602 20.5554 28.3025 19.8146 28.3025C19.152 28.3025 18.5127 27.9799 17.8899 27.3059V28.179H16.028V16.0881H17.8899V20.0366C18.4914 19.3876 19.1299 19.0594 19.8146 19.0594C20.5554 19.0594 21.0538 19.4014 21.3022 20.0758C21.4274 20.4382 21.4906 21.0339 21.4906 21.8868V25.4747ZM28.5183 23.9718H24.7941V25.5686C24.7941 26.4025 25.1053 26.8189 25.7454 26.8189C26.2039 26.8189 26.4708 26.6005 26.5771 26.1643C26.5944 26.0757 26.6189 25.7129 26.6189 25.0583H28.5187V25.2965C28.5187 25.8227 28.4957 26.1851 28.4788 26.3481C28.4164 26.7095 28.2699 27.0373 28.044 27.326C27.5283 27.9803 26.7643 28.3028 25.7917 28.3028C24.8174 28.3028 24.0759 27.9955 23.5376 27.3804C23.1427 26.9294 22.9398 26.2193 22.9398 25.2619V22.1067C22.9398 21.1436 23.1198 20.4393 23.5155 19.984C24.0533 19.3675 24.7945 19.0605 25.7458 19.0605C26.6801 19.0605 27.4209 19.3675 27.9426 19.984C28.3327 20.4393 28.5191 21.1436 28.5191 22.1067V23.9718H28.5183Z"/>
            <path d="M25.7273 21C25.105 21 24.793 21.4168 24.793 22.2496V23.0831H26.6549V22.2496C26.6545 21.4168 26.3433 21 25.7273 21Z"/>
            <path d="M18.8194 20.5273C18.5126 20.5273 18.2018 20.6544 17.8906 20.9244V26.415C18.2014 26.6882 18.5126 26.8173 18.8194 26.8173C19.3564 26.8173 19.6293 26.415 19.6293 25.6016V21.7565C19.6293 20.9441 19.3564 20.5273 18.8194 20.5273Z"/>
            <path d="M19.8597 12.3425C20.5461 12.3425 21.2602 11.977 22.0094 11.2246V12.2176H23.8915V3.11328H22.0094V10.0717C21.5924 10.5883 21.197 10.8438 20.8206 10.8438C20.5686 10.8438 20.4205 10.7132 20.3794 10.4574C20.3565 10.4034 20.3565 10.2026 20.3565 9.81617V3.11328H18.4805V10.3123C18.4805 10.9553 18.5433 11.3904 18.6471 11.666C18.8363 12.1273 19.2538 12.3425 19.8597 12.3425Z"/>
            <path d="M6.75884 7.26893V12.2169H8.84578V7.26893L11.3562 0H9.24594L7.82204 4.79761L6.34057 0H4.14453C4.58454 1.13244 5.04227 2.27053 5.48228 3.40403C6.15176 5.1078 6.56963 6.39234 6.75884 7.26893Z"/>
            <path d="M14.1513 12.3394C15.0941 12.3394 15.8268 12.0285 16.3465 11.4074C16.7414 10.9518 16.9306 10.234 16.9306 9.26636V6.07831C16.9306 5.10502 16.7418 4.39358 16.3465 3.93376C15.8268 3.3109 15.0945 3 14.1513 3C13.2133 3 12.481 3.3109 11.9601 3.93376C11.5603 4.39358 11.3711 5.10502 11.3711 6.07831V9.26636C11.3711 10.234 11.5603 10.9518 11.9601 11.4074C12.4806 12.0285 13.2133 12.3394 14.1513 12.3394ZM13.2531 5.74764C13.2531 4.90528 13.5446 4.48534 14.1513 4.48534C14.7579 4.48534 15.0486 4.90493 15.0486 5.74764V9.57726C15.0486 10.4196 14.7579 10.841 14.1513 10.841C13.5446 10.841 13.2531 10.4196 13.2531 9.57726V5.74764Z"/>
        </g>
    </symbol>
    <symbol id="modal-close-cross" viewBox="0 0 16 20">
        <g>
            <path d="M1 1L15 18.5M15 1L1 18.5"/>
        </g>
    </symbol>
</svg>