<svg width="77" height="36" viewBox="0 0 77 36" fill="none" xmlns="http://www.w3.org/2000/svg">
<path d="M3.23377 9.62323C3.23377 9.19466 3.46753 8.80505 4.16883 8.80505H8.18182V10.753H4.16883C3.38961 10.753 3.23377 10.2855 3.23377 10.0517V9.62323ZM11.3766 6.07777C11.3766 4.90894 10.4026 4.44141 9.31169 4.44141H0.506493V6.07777H7.20779C7.71429 6.07777 8.14286 6.27258 8.14286 6.85699V7.16868H1.75325C0.623377 7.16868 0 7.9479 0 8.84401V10.792C0 11.5712 0.623377 12.5063 1.75325 12.5063H11.3766V6.07777Z" fill="black" fill-opacity="0.5"/>
<path d="M40.7912 8.41554V12.5064H44.1419V4.48047H40.7912L35.96 9.70125C35.96 9.70125 35.96 9.27268 35.96 8.76619V4.48047H32.6094V12.5064H35.96L40.7912 7.20774C40.8302 7.20774 40.7912 7.98697 40.7912 8.41554Z" fill="black" fill-opacity="0.5"/>
<path d="M63.7424 4.48047H60.3917V10.7531H56.4566V4.48047H53.106V10.7531H49.2099V4.48047H45.8203V12.5064H63.7424V4.48047Z" fill="black" fill-opacity="0.5"/>
<path d="M29.0675 4.44156H23.7299V0H20.3792V4.44156H15.0416C13.9507 4.44156 12.9766 4.94805 12.9766 6.07792V10.7922C12.9766 11.961 13.9507 12.5455 15.0416 12.5455H20.3792V16.987H23.7299V12.5455H29.0675C30.1584 12.5455 31.1325 11.961 31.1325 10.7922V6.07792C31.0935 4.90909 30.1195 4.44156 29.0675 4.44156ZM20.3792 10.7922H17.1455C16.639 10.7922 16.2104 10.5195 16.2104 9.93507V6.8961C16.2104 6.31169 16.639 6.03896 17.1455 6.03896H20.3792V10.7922ZM27.8597 9.93507C27.8597 10.5195 27.4312 10.7922 26.9247 10.7922H23.6909V6.03896H26.9247C27.4312 6.03896 27.8597 6.31169 27.8597 6.8961V9.93507Z" fill="black" fill-opacity="0.5"/>
<path d="M68.1829 9.62323C68.1829 9.19466 68.4167 8.80505 69.118 8.80505H73.131V10.753H69.157C68.3777 10.753 68.2219 10.2855 68.2219 10.0517V9.62323H68.1829ZM76.3258 6.07777C76.3258 4.90894 75.3518 4.44141 74.2609 4.44141H65.4557V6.07777H72.157C72.6634 6.07777 73.092 6.27258 73.092 6.85699V7.16868H66.7024C65.5725 7.16868 64.9492 7.9479 64.9492 8.84401V10.792C64.9492 11.5712 65.5725 12.5063 66.7024 12.5063H76.3258V6.07777Z" fill="black" fill-opacity="0.5"/>
<path d="M28.1679 23.1814V17.8827L22.2848 14.8438H16.9861L11.3757 15.7399V17.8438L17.1419 16.9476H21.2329L25.7523 19.2073V22.9086L23.8432 28.1294L19.2458 32.1035L14.103 32.9216L18.8952 18.7787H16.3627L11.6095 32.9995H8.64844V35.1035H14.2588L20.4536 34.0514L25.8303 29.6488L28.1679 23.1814ZM47.2199 15.1553L46.4017 17.8827H48.8952L49.7134 15.1553H47.2199ZM33.4666 28.7528H32.0251V27.2334L33.1549 24.0385L36.1939 21.4671H38.6095L37.1679 25.5579L33.4666 28.7528ZM68.4536 19.6749H66.116L64.4406 25.5579L60.6614 28.7528H59.4536V26.9216L61.7913 19.6749H59.3757L57.4666 25.5579L53.8432 28.7528H52.6355V26.9216L56.3368 15.1165H54.038L50.7653 25.5579L47.064 28.7528H45.8562V27.2334L48.2718 19.6749H45.8562L43.9471 25.5579L40.2458 28.7528H39.038V27.2334L41.5316 19.6749H35.1809L31.129 23.1425L29.7264 26.9216V30.545H33.5835L36.7783 27.8177V30.545H40.4017L43.5575 27.8177V30.545H47.1809L50.3757 27.8177V30.545H53.9991L57.1939 27.8177V30.545H60.8173L64.051 27.8177L63.077 31.597L60.8173 33.5451L54.038 33.8956V35.9995L61.3627 35.6879L65.2199 32.3761L68.4536 19.6749Z" fill="black" fill-opacity="0.5"/>
</svg>
