<svg width="166" height="32" viewBox="0 0 166 32" fill="none" xmlns="http://www.w3.org/2000/svg">
<path d="M1.86367 2V17.7333C1.86367 20.2667 2.26303 22.1333 3.32799 23.6C5.72414 26.9333 10.1171 29.2 12.6463 29.8667C15.1756 29.0667 19.7017 26.9333 21.9647 23.6C23.0297 22.1333 23.429 20.2667 23.429 17.7333V2H1.86367ZM25.5589 0V17.7333C25.5589 20.8 25.0265 22.9333 23.6953 24.8C20.8998 28.8 15.7081 31.3333 12.7795 32C9.71772 31.2 4.52606 28.6667 1.86367 24.8C0.532478 22.9333 0 20.8 0 17.7333V0H25.5589Z" fill="black" fill-opacity="0.5"/>
<path d="M126.996 22.2666V7.19995H129.525L129.658 7.59995L135.782 17.3333V7.19995H138.444V22.2666H135.915L135.782 21.8666L129.658 12.1333V22.2666H126.996Z" fill="black" fill-opacity="0.5"/>
<path d="M53.9148 15.8659H47.7913V22.2659H45.1289V7.19922H47.7913V13.4659H53.9148V7.19922H56.5772V22.2659H53.9148V15.8659Z" fill="black" fill-opacity="0.5"/>
<path d="M86.5264 13.5992L83.0653 20.5326H81.2016L77.7405 13.5992V22.2659H75.0781V7.19922H77.6074L77.7405 7.73255L81.8672 16.1326H82.2666L86.5264 7.73255L86.6595 7.19922H89.1888V22.2659H86.5264V13.5992Z" fill="black" fill-opacity="0.5"/>
<path d="M161.474 22.2666H158.811V9.73328H154.418V7.19995H165.867V9.73328H161.474V22.2666Z" fill="black" fill-opacity="0.5"/>
<path d="M108.491 7.19922H105.828V22.2659H108.491V7.19922Z" fill="black" fill-opacity="0.5"/>
<path d="M140.708 22.2666H143.636L144.967 18.6666H150.425L151.756 22.2666H154.685L148.961 7.19995H146.432L140.708 22.2666ZM145.766 16.2666L147.63 10.9333H147.763L149.627 16.2666H145.766Z" fill="black" fill-opacity="0.5"/>
<path d="M58.8398 22.2659H61.7685L63.0997 18.6659H68.5576L69.8888 22.2659H72.8174L67.0933 7.19922H64.564L58.8398 22.2659ZM63.8984 16.2659L65.7621 10.9326H65.8952L67.7589 16.2659H63.8984Z" fill="black" fill-opacity="0.5"/>
<path d="M122.869 9.60002C121.804 7.86668 119.807 6.93335 117.677 6.93335C115.547 6.93335 113.551 7.86668 112.486 9.60002C111.953 10.5333 111.687 11.4667 111.687 13.2V16.4C111.687 18 111.953 19.0667 112.619 20C113.684 21.7333 115.681 22.6667 117.811 22.6667C119.94 22.6667 121.937 21.7333 123.002 20C123.535 19.0667 123.934 18 123.934 16.4V13.2C123.801 11.4667 123.535 10.5333 122.869 9.60002ZM121.138 16.6667C121.138 17.6 120.872 18.2667 120.606 18.8C119.94 19.7334 118.875 20.2667 117.677 20.2667C116.612 20.2667 115.414 19.7334 114.749 18.8C114.349 18.2667 114.216 17.6 114.216 16.6667V12.9333C114.216 12 114.483 11.3334 114.749 10.8C115.547 9.86668 116.612 9.33335 117.677 9.33335C118.742 9.33335 119.94 9.86668 120.606 10.8C121.005 11.3334 121.138 12 121.138 12.9333V16.6667Z" fill="black" fill-opacity="0.5"/>
<path d="M101.57 8.26662C100.771 7.59995 99.7064 7.19995 98.109 7.19995H92.7842V22.2666H95.4466V17.0666H98.109C99.7064 17.0666 100.771 16.6666 101.57 16C102.635 15.2 103.301 14 103.301 12.1333C103.301 10.4 102.502 9.19995 101.57 8.26662ZM100.638 12.1333C100.638 12.9333 100.372 13.6 99.8395 14C99.4402 14.2666 98.9077 14.5333 97.9758 14.5333H95.3134V9.73328H97.9758C99.0408 9.73328 99.4402 9.99995 99.8395 10.2666C100.372 10.6666 100.638 11.3333 100.638 12.1333Z" fill="black" fill-opacity="0.5"/>
<path d="M37.5415 6.93359C35.4116 6.93359 33.4148 7.86693 32.3498 9.60026C31.8173 10.5336 31.418 11.6003 31.418 13.2003V16.4003C31.418 18.0003 31.6842 19.0669 32.3498 20.0003C33.4148 21.7336 35.4116 22.6669 37.5415 22.6669C39.8045 22.6669 41.2688 22.1336 42.6 21.0669L41.2688 19.0669C40.337 19.7336 39.272 20.1336 37.6746 20.1336C36.6096 20.1336 35.4116 19.6003 34.746 18.6669C34.3466 18.1336 34.2135 17.4669 34.2135 16.5336V12.9336C34.2135 12.0003 34.4797 11.3336 34.746 10.8003C35.4116 9.86693 36.4765 9.33359 37.5415 9.33359C38.8727 9.33359 39.8045 9.60026 40.7363 10.2669L42.2006 8.26693C41.1357 7.46693 39.6714 6.93359 37.5415 6.93359Z" fill="black" fill-opacity="0.5"/>
<path d="M8.65168 17.7333H12.2459C13.3109 17.7333 13.7102 17.2 13.7102 17.2V27.4667C15.9732 26.5333 18.7688 24.8 20.3662 22.5333C20.8987 21.7333 21.4311 20.5333 21.4311 17.8667V4H13.7102C13.7102 6 13.7102 12 13.7102 12C13.7102 12.5333 13.444 12.8 12.9115 12.8H11.5803C11.0478 12.8 10.7816 12.5333 10.7816 12V4H3.85938V12.8C3.85938 15.7333 4.12561 17.7333 8.65168 17.7333Z" fill="black" fill-opacity="0.5"/>
</svg>
