<svg width="121" height="19" viewBox="0 0 121 19" fill="none" xmlns="http://www.w3.org/2000/svg">
<g clip-path="url(#clip0)">
<path d="M7.46918 0.25C11.0062 0.25 14.3192 2.04281 14.3192 6.15381V12.083C14.3192 16.143 11.0062 17.9122 7.46918 17.8882H0.867188V0.25H7.46918ZM7.6232 13.7021C9.1462 13.7021 9.84518 12.9302 9.84518 11.7842V6.27783C9.84518 5.13283 9.1212 4.41016 7.6232 4.41016H5.3512V13.7021H7.6232Z" fill="black" fill-opacity="0.5"/>
<path d="M32.1542 17.8882H27.3712L26.2252 14.3501H21.5172L20.4212 17.8882H15.6372L21.7912 0.25H25.8512L32.1542 17.8882ZM25.1542 10.3892L23.9332 5.23291H23.8092L22.5132 10.3892H25.1542Z" fill="black" fill-opacity="0.5"/>
<path d="M39.5633 12.2822H38.7663V17.8872H34.2573V0.25H41.3073C44.9453 0.25 47.7593 1.91922 47.8593 6.05322C47.8593 9.31722 46.5393 11.161 44.3963 11.834L49.2053 17.8872H43.6493L39.5633 12.2822ZM41.3823 8.44482C44.1973 8.44482 44.1973 4.41016 41.3823 4.41016H38.7663V8.44482H41.3823Z" fill="black" fill-opacity="0.5"/>
<path d="M60.9154 0.25H66.4714L59.4955 8.77002L66.4464 17.8882H60.7904L56.2824 11.585L56.1324 11.7842V17.8882H51.6484V0.25H56.1324V6.77588L60.9154 0.25Z" fill="black" fill-opacity="0.5"/>
<path d="M70.2222 12.3071C71.9912 14.4491 75.8772 14.5478 76.0022 12.6558C76.0522 11.6588 74.4322 11.0862 72.9872 10.8872C70.1472 10.4382 67.5562 8.64523 67.5562 5.28223C67.5562 1.81923 70.6962 0 73.9342 0C76.0762 0 78.1442 0.597941 79.9632 2.81494L77.0482 5.05713C75.2042 3.08913 72.0412 3.16305 71.9662 5.20605C72.0162 6.05305 72.9372 6.55207 74.3072 6.85107C77.4472 7.42407 80.5862 8.51998 80.3862 12.855C80.2372 16.268 76.6492 18.1362 73.4112 18.1362C71.2932 18.1362 69.0512 17.0652 67.4072 14.9482L70.2222 12.3071Z" fill="black" fill-opacity="0.5"/>
<path d="M83.437 17.8882H87.896V0.25H83.437V17.8882Z" fill="black" fill-opacity="0.5"/>
<path d="M98.0971 0.25C101.635 0.25 104.948 2.04281 104.948 6.15381V12.083C104.948 16.143 101.635 17.9122 98.0971 17.8882H91.4961V0.25H98.0971ZM98.2521 13.7021C99.7751 13.7021 100.474 12.9302 100.474 11.7842V6.27783C100.474 5.13283 99.7501 4.41016 98.2521 4.41016H95.9801V13.7021H98.2521Z" fill="black" fill-opacity="0.5"/>
<path d="M112.326 7.17578H119.476V11.0371H112.326V13.6782H120.098V17.8882H107.817V0.25H120.098V4.43506H112.326V7.17578Z" fill="black" fill-opacity="0.5"/>
</g>
<defs>
<clipPath id="clip0">
<rect width="120" height="19" fill="white" transform="translate(0.867188)"/>
</clipPath>
</defs>
</svg>
