<svg width="95" height="30" viewBox="0 0 95 30" fill="none" xmlns="http://www.w3.org/2000/svg">
<path d="M34.3664 13.082C38.5274 13.082 40.6074 12.0071 40.6074 9.80908V6.07507C40.6074 3.87707 38.5274 2.80005 34.3664 2.80005H29.3704C25.2094 2.80005 23.1304 3.87707 23.1304 6.07507V9.80908C23.1304 12.0071 25.2094 13.082 29.3704 13.082H34.3664ZM34.3664 11.1721H29.3704C27.0444 11.1721 25.9404 10.773 25.9404 9.95905V5.92407C25.9404 5.11107 27.0444 4.71204 29.3704 4.71204H34.3664C36.6934 4.71204 37.7974 5.11107 37.7974 5.92407V9.95905C37.7974 10.773 36.6934 11.1721 34.3664 11.1721Z" fill="black" fill-opacity="0.5"/>
<path d="M87.8864 13.082C92.0464 13.082 94.1264 12.0071 94.1264 9.80908V6.07507C94.1264 3.87707 92.0464 2.80005 87.8864 2.80005H82.8894C78.7294 2.80005 76.6504 3.87707 76.6504 6.07507V9.80908C76.6504 12.0071 78.7294 13.082 82.8894 13.082H87.8864ZM87.8864 11.1721H82.8894C80.5634 11.1721 79.4594 10.7731 79.4594 9.96008V5.92407C79.4594 5.11207 80.5634 4.71307 82.8894 4.71307H87.8864C90.2124 4.71307 91.3164 5.11207 91.3164 5.92407V9.96008C91.3164 10.7731 90.2124 11.1721 87.8864 11.1721Z" fill="black" fill-opacity="0.5"/>
<path d="M20.2472 9.75598V7.17499C20.2472 6.61499 19.9022 6.35999 19.2082 6.35999H13.1162C12.5662 6.35999 12.1172 6.83101 12.1172 7.40601C12.1172 7.98201 12.5662 8.45203 13.1162 8.45203H17.2832V9.841C17.2832 10.257 16.7422 10.659 15.8352 10.904C15.1142 11.099 14.5132 11.116 13.8742 11.116H7.17319C4.50219 11.116 3.16418 10.675 3.16418 9.78802V3.23199C3.16418 2.34799 4.7612 1.93799 7.9502 1.93799H9.8342C10.5552 1.93799 10.9162 1.61203 10.9162 0.965027C10.9162 0.321027 10.5552 0 9.8342 0H7.16019C5.54719 0 4.06118 0.176996 2.73618 0.632996C1.22918 1.151 0.200195 2.062 0.200195 3.237V9.80103C0.200195 11.024 1.03119 11.911 2.68619 12.467C3.89119 12.873 5.37218 13.077 7.13718 13.077H13.8702C15.5132 13.077 16.9042 12.851 18.0452 12.4C19.5152 11.823 20.2472 10.943 20.2472 9.75598Z" fill="black" fill-opacity="0.5"/>
<path d="M61.259 0.549988C60.081 0.198988 58.653 0 56.979 0H44.386C44.1616 0 43.9465 0.089147 43.7878 0.247803C43.6292 0.406458 43.54 0.621635 43.54 0.846008V12.221C43.54 12.793 43.895 13.077 44.581 13.077H45.462C46.147 13.077 46.503 12.793 46.503 12.221V8.39502H56.979C58.763 8.39502 60.134 8.20002 61.395 7.78302C63.015 7.18802 63.838 6.24198 63.838 4.94598V2.90198C63.838 1.86798 62.987 1.07699 61.259 0.549988ZM60.874 5.09698C60.874 6.15198 59.558 6.45697 56.979 6.45697H46.503V1.93799H56.979C59.558 1.93799 60.874 2.24297 60.874 3.29797V5.09698Z" fill="black" fill-opacity="0.5"/>
<path d="M73.6424 2.79006C71.0584 2.79006 69.9644 2.74409 68.4334 3.37209C66.9944 3.96209 66.3804 5.00205 66.3804 5.95705V12.2571C66.3804 12.8031 66.7204 13.0731 67.3724 13.0731H68.2114C68.8644 13.0731 69.2034 12.8031 69.2034 12.2581V5.95705C69.2034 5.07705 70.2934 4.70406 72.4554 4.70406H73.6634C74.3694 4.70406 74.7034 4.38109 74.7034 3.74709C74.7034 3.11609 74.3484 2.79109 73.6424 2.79109" fill="black" fill-opacity="0.5"/>
<path d="M0.200195 29.6411H20.5802V16.3H0.200195V29.6411Z" fill="black" fill-opacity="0.5"/>
<path d="M24.7119 29.6418H45.0919V16.3008H24.7119V29.6418Z" fill="black" fill-opacity="0.5"/>
<path d="M49.2314 29.6418H69.6104V16.3008H49.2314V29.6418Z" fill="black" fill-opacity="0.5"/>
<path d="M73.7402 29.6411H94.1202V16.3H73.7402V29.6411Z" fill="black" fill-opacity="0.5"/>
</svg>
