<svg width="143" height="30" viewBox="0 0 143 30" fill="none" xmlns="http://www.w3.org/2000/svg">
<g clip-path="url(#clip0)">
<path d="M11.1241 0H8.67192C8.40824 0 8.19731 0.210526 8.19731 0.473684V2.8421L4.29494 9.57891V0.473684C4.29494 0.210526 4.084 0 3.82033 0H1.3418C1.07813 0 0.867188 0.210526 0.867188 0.473684V29.5C0.867188 29.7632 1.07813 29.9737 1.3418 29.9737H3.79397C4.05764 29.9737 4.26857 29.7632 4.26857 29.5V18.7631L8.17094 12.0263V29.5C8.17094 29.7632 8.38188 29.9737 8.64555 29.9737H11.0977C11.3614 29.9737 11.5723 29.7632 11.5723 29.5V0.473684C11.5987 0.210526 11.3878 0 11.1241 0Z" fill="black" fill-opacity="0.5"/>
<path d="M89.6213 0H87.169C86.9053 0 86.6944 0.210526 86.6944 0.473684V2.8421L82.792 9.57891V0.473684C82.792 0.210526 82.581 0 82.3174 0H79.8652C79.6016 0 79.3906 0.210526 79.3906 0.473684V29.5C79.3906 29.7632 79.6016 29.9737 79.8652 29.9737H82.3174C82.581 29.9737 82.792 29.7632 82.792 29.5V18.7631L86.6944 12.0263V29.5C86.6944 29.7632 86.9053 29.9737 87.169 29.9737H89.6213C89.885 29.9737 90.0958 29.7632 90.0958 29.5V0.473684C90.0958 0.210526 89.885 0 89.6213 0Z" fill="black" fill-opacity="0.5"/>
<path d="M34.1972 13.8953C34.6719 13.1058 35.041 12.4216 35.2784 12.0005C36.3594 10.1058 37.3877 8.55317 37.3877 6.94792V3.00055C37.3614 0.895286 35.3047 -0.0257682 34.2763 0.000547611C34.0918 0.000547611 29.7412 0.000547611 28.291 0.000547611C28.0273 0.000547611 27.8164 0.211074 27.8164 0.474232V29.5005C27.8164 29.7637 28.0273 29.9743 28.291 29.9743C29.8994 29.9743 34.9619 29.9743 35.2784 29.9743C36.3067 30.0005 38.3633 29.0795 38.3897 26.9743V26.8163V23.8427V22.1848C38.3897 21.1584 37.9678 20.4479 37.9678 20.4479L34.1972 13.8953ZM31.2442 6.50055C31.2442 6.31634 31.4023 6.15844 31.5869 6.15844H33.7754C34.6192 6.15844 34.6983 7.02686 34.5401 7.36897C34.4346 7.5795 32.8262 10.5532 31.2442 13.4216V6.50055ZM35.0147 23.9743C34.9619 24.2111 34.7773 24.6584 34.1446 24.6584H31.5869C31.4023 24.6584 31.2442 24.5006 31.2442 24.3163V19.0005C31.666 18.29 32.1406 17.4742 32.6152 16.6321L34.5401 19.9479C34.5401 19.9479 34.9883 20.6058 34.9883 21.4742V23.9743H35.0147Z" fill="black" fill-opacity="0.5"/>
<path d="M103.779 -6.27405e-05C102.381 -6.27405e-05 97.1345 -6.27405e-05 96.8973 -6.27405e-05C95.8689 -0.0263785 93.8121 0.894676 93.7856 2.99994V6.92099C93.7856 8.52625 94.814 10.0789 95.8954 11.9736C96.0797 12.2894 96.3699 12.7894 96.6865 13.3684L94.366 17.3946C94.366 17.3946 93.9444 18.1052 93.9444 19.1316C93.9444 20.0263 93.9444 27.4473 93.9444 29.5263C93.9444 29.7894 94.1552 29.9999 94.4189 29.9999H96.8708C97.1345 29.9999 97.3453 29.7894 97.3453 29.5263C97.3453 27.421 97.3453 19.7631 97.3453 19.6315C97.3453 18.7631 97.7934 18.1052 97.7934 18.1052L98.5845 16.7105C99.4021 18.1315 100.193 19.4999 100.668 20.3158V29.5263C100.668 29.7894 100.879 29.9999 101.142 29.9999H103.753C103.937 29.9999 104.095 29.8421 104.095 29.6578V0.342043C104.122 0.157832 103.964 -6.27405e-05 103.779 -6.27405e-05ZM100.694 14.7894C98.9012 11.5789 96.7394 7.6052 96.6336 7.36836C96.4757 7.02625 96.5542 6.15783 97.3983 6.15783H100.22C100.483 6.15783 100.694 6.36836 100.694 6.63151V14.7894Z" fill="black" fill-opacity="0.5"/>
<path d="M64.5198 24.6574H58.8508C58.3234 24.6574 57.9016 24.2363 57.9016 23.71V7.13108C57.9016 6.60477 58.3234 6.18371 58.8508 6.18371H63.1487C63.3596 6.18371 63.5178 5.9995 63.4915 5.78897L62.6477 0.499498C62.595 0.23634 62.384 0.0521298 62.1203 0.0521298H57.8752C56.9523 -0.000501838 54.4738 0.55213 54.5002 3.44687V26.5784C54.4738 29.4995 57.005 30.0521 57.9016 29.9732H63.6233C63.8869 29.9732 64.1243 29.789 64.1507 29.5259L64.8626 25.0521C64.889 24.8416 64.7307 24.6574 64.5198 24.6574Z" fill="black" fill-opacity="0.5"/>
<path d="M21.75 13.0263C22.1719 12.3158 22.541 11.6579 22.7256 11.3421C23.8067 9.44734 24.4659 8.55262 24.4659 6.94736V3.02631C24.4131 0.92104 22.3564 -1.12988e-05 21.3281 0.0263044H16.1074C15.8438 0.0263044 15.6064 0.210515 15.58 0.473672L14.7363 5.76315C14.71 5.97368 14.8681 6.15788 15.0791 6.15788H20.2207C20.5634 6.15788 20.9854 6.31578 21.0908 6.86841V7.28946C21.0908 7.28946 21.0381 8.89472 20.2734 10.1316C19.7989 10.921 18.5068 13.0263 18.5068 13.0263H17.2675C17.0303 13.0263 16.8457 13.1842 16.7929 13.421L16.3711 15.9737C16.3447 16.1842 16.503 16.3684 16.7138 16.3684H18.5596C19.2188 16.3684 19.5351 16.3684 19.6406 16.3684C20.1416 16.3947 21.0645 16.6579 21.0645 17.9737V19.421C21.0645 20.7105 21.0645 22.2105 21.0645 23.6842C21.0645 24.2105 20.6426 24.6316 20.1152 24.6316H14.7363C14.5254 24.6316 14.3671 24.8158 14.3935 25.0263L15.1054 29.5C15.1582 29.7632 15.3692 29.9474 15.6328 29.9474H21.0645C21.9873 30 24.4659 29.4474 24.4395 26.5526V22.3158V17.1579C24.4659 13.2105 21.75 13.0263 21.75 13.0263Z" fill="black" fill-opacity="0.5"/>
<path d="M51.3609 6.1579C51.5718 6.1579 51.7301 5.97369 51.7037 5.76316L50.8599 0.473684C50.8071 0.210526 50.5963 0.0263158 50.3325 0.0263158L42.2641 0C42.0796 0 41.9214 0.157894 41.9214 0.342105V29.6316C41.9214 29.8158 42.0796 29.9737 42.2641 29.9737H50.3853C50.6489 29.9737 50.8863 29.7895 50.9126 29.5264L51.6246 25.0526C51.6509 24.8421 51.4927 24.6579 51.2817 24.6579H45.3228V16.3421H48.1177C48.3287 16.3421 48.4868 16.1579 48.4604 15.9474L48.0386 13.3947C47.9858 13.1316 47.7749 12.9474 47.5112 12.9474H45.3491V6.1579H51.3609Z" fill="black" fill-opacity="0.5"/>
<path d="M76.0127 0.472759C75.96 0.209601 75.749 0.0253906 75.4854 0.0253906H66.3623C66.0986 0.0253906 65.8613 0.209601 65.835 0.472759L64.9912 5.73591C64.9648 5.94644 65.123 6.13065 65.334 6.13065H69.2363V29.499C69.2363 29.7623 69.4472 29.9728 69.7109 29.9728H72.1631C72.4268 29.9728 72.6377 29.7623 72.6377 29.499C72.6377 29.499 72.6377 13.0517 72.6377 6.13065H76.5401C76.751 6.13065 76.9092 5.94644 76.8828 5.73591L76.0127 0.472759Z" fill="black" fill-opacity="0.5"/>
<path d="M120.338 4.21053H116.171V0H111.953V30H142.012V0H120.364V4.21053H120.338ZM120.338 25.7631H116.171V8.36842H120.338V25.7631ZM124.846 21.6053L131.807 12.5526H124.846V8.36842H137.767V12.5263L130.805 21.5789H137.767V25.7368H124.846V21.6053Z" fill="black" fill-opacity="0.5"/>
</g>
<defs>
<clipPath id="clip0">
<rect width="142" height="30" fill="white" transform="translate(0.867188)"/>
</clipPath>
</defs>
</svg>
