<svg width="208" height="18" viewBox="0 0 208 18" fill="none" xmlns="http://www.w3.org/2000/svg">
<path d="M33.5265 17.6528H2.10573C1.02721 17.6528 0.26454 16.7453 0.256836 15.8762V8.81355C1.60884 8.81355 2.81959 8.16059 3.25998 7.84173C6.06028 5.83345 8.39061 1.92077 11.3732 0.646628C12.2476 0.272485 13.945 -0.330675 16.0866 0.224753L18.6494 2.78614C18.6494 2.78614 17.3115 2.15332 15.3252 2.15332C13.1014 2.15332 8.80533 3.99487 8.80533 8.80602C8.80533 12.685 11.4644 15.4041 15.8312 15.4041H31.2809L33.5265 17.6528Z" fill="black" fill-opacity="0.5"/>
<path d="M29.9069 13.7373H15.5061C13.8716 13.7373 11.6902 12.9544 11.0303 11.4295C11.0303 11.4295 17.5052 4.80306 17.8185 4.48677C18.594 3.71535 19.9768 3.71535 20.6471 4.48677L29.9069 13.7373ZM15.596 8.62768C15.4329 8.78839 15.5215 8.97506 15.7333 8.96606H17.5052L18.7519 7.9076C19.0138 7.65175 19.2668 7.69829 19.2668 7.97729V10.086C19.2591 10.419 19.5544 10.419 19.7342 10.1953L21.0284 8.96606H22.7283C22.8631 8.96477 22.9594 8.78819 22.7745 8.60947L19.7097 5.58604C19.4902 5.36104 19.0177 5.36104 18.8058 5.58604C18.7288 5.65418 15.596 8.62768 15.596 8.62768Z" fill="black" fill-opacity="0.5"/>
<path d="M121.352 7.52114C118.84 6.45014 117.434 6.40617 117.434 5.01374C117.434 4.22174 118.325 3.63951 119.484 3.63951C120.814 3.63951 121.889 4.17068 122.449 4.94468L124.742 3.06445C123.806 1.64502 121.998 0.322266 119.392 0.322266C116.63 0.322266 114.045 2.05665 114.045 5.06522C114.045 7.52093 115.761 9.052 117.995 9.92243C120.152 10.7839 121.889 11.1507 121.889 12.6125C121.889 13.4135 121.287 14.2762 119.573 14.2762C117.768 14.2762 116.41 13.3875 115.676 12.0645L113.179 13.9095C114.134 15.9371 116.209 17.6179 119.552 17.6179C123.493 17.6179 125.324 15.4592 125.324 12.5008C125.324 10.0888 124.163 8.66928 121.352 7.52114Z" fill="black" fill-opacity="0.5"/>
<path d="M82.7378 17.3816H86.1852V0.539917H82.7378V17.3816Z" fill="black" fill-opacity="0.5"/>
<path d="M132.374 17.3808H135.825V0.539062H132.374V17.3808Z" fill="black" fill-opacity="0.5"/>
<path d="M144.226 0.539917V17.3829H153.405V13.9979H147.67V0.539917H144.226Z" fill="black" fill-opacity="0.5"/>
<path d="M167.466 0.539917L164.127 11.6719L160.6 0.539917H156.924L162.488 17.3829H165.781L171.134 0.539917H167.466Z" fill="black" fill-opacity="0.5"/>
<path d="M177.519 0.539917V17.3829H187.069V13.9979H180.969V11.1063H185.924V7.89699H180.969V3.91868H187.097V0.539917H177.519Z" fill="black" fill-opacity="0.5"/>
<path d="M203.528 11.3505C205.462 10.516 206.535 8.29688 206.535 6.10088C206.535 2.95988 204.133 0.539917 201.219 0.539917H195.045V17.3904H198.469V3.91868H201.137C202.231 3.91868 203.079 4.83917 203.079 6.14546C203.079 7.5726 202.189 8.4959 200.841 8.4959H200.093V11.6204L203.662 17.3904H207.557L203.528 11.3505Z" fill="black" fill-opacity="0.5"/>
<path d="M71.4428 9.66863C71.4428 12.6103 70.1665 13.7505 68.2599 13.7505C66.3404 13.7505 65.0615 12.6103 65.0615 9.66863V0.398682H61.6167V10.4352C61.6167 15.1974 64.6199 17.5191 68.2599 17.5191C71.8883 17.5191 74.894 15.1974 74.894 10.4352V0.398682H71.4428V9.66863Z" fill="black" fill-opacity="0.5"/>
<path d="M55.7221 8.956C55.7221 4.09986 51.9357 0.269897 47.1915 0.269897C42.464 0.269897 38.6597 4.09986 38.6597 8.956C38.6597 13.8481 42.464 17.6503 47.1915 17.6503C47.9306 17.6527 48.6668 17.5596 49.382 17.3728L47.0926 14.2841C44.3206 14.2223 42.1931 11.9337 42.1931 8.956C42.1931 6.031 44.3694 3.63988 47.1915 3.63988C50.0111 3.63988 52.1886 6.049 52.1886 8.956C52.1886 9.95757 51.9396 10.8807 51.5146 11.6624L49.0828 8.48704L46.4366 10.7935L51.4748 17.3816H55.8736L53.7397 14.5879C54.98 13.0811 55.7221 11.1224 55.7221 8.956Z" fill="black" fill-opacity="0.5"/>
<path d="M104.245 0.539062L98.0259 8.51325V0.539062H94.5771V17.382H98.0259V13.9518L100.075 11.3145L104.593 17.382H108.879L102.314 8.49505L108.505 0.539062H104.245Z" fill="black" fill-opacity="0.5"/>
</svg>
