<svg width="159" height="38" viewBox="0 0 159 38" fill="none" xmlns="http://www.w3.org/2000/svg">
<path d="M30.666 24.1111C31.884 23.3781 32.614 22.174 32.614 20.865C32.614 18.989 30.974 17 27.927 17C23.576 17 23.241 20.0881 23.241 21.0381V21.105H25.876L25.886 21.0381C25.962 19.8561 26.648 19.2581 27.927 19.2581C28.76 19.2581 29.73 19.7221 29.73 21.0381C29.73 21.8301 29.31 23.1541 26.485 23.1541H26.409V25.3521H26.485C29.833 25.3521 30.091 26.975 30.091 27.469C30.091 28.964 29.001 29.741 27.927 29.741C26.562 29.741 25.713 29.0761 25.635 27.9541V27.894H23V27.9619C23 29.9729 24.52 32 27.927 32C31.06 32 33 29.66 33 27.491C33 26.01 32.15 24.7841 30.666 24.1111Z" fill="black" fill-opacity="0.5"/>
<path d="M4.737 17H0V32H2.95703V26.542H4.49701C8.29701 26.542 10 24.1259 10 21.7419C10 18.6819 8.134 17 4.737 17ZM4.49701 24.2019H2.95703V19.2141H4.72003C6.26703 19.2141 7.05804 20.0741 7.05804 21.7561C7.05804 22.8861 6.38803 24.2019 4.49603 24.2019" fill="black" fill-opacity="0.5"/>
<path d="M16.508 17C12.958 17 11 19.64 11 24.417C11 29.237 12.991 32 16.465 32C19.983 32 22 29.2219 22 24.3799C22 19.6179 20.051 17 16.508 17ZM16.5031 29.7561C14.9301 29.7561 14.095 27.9 14.095 24.384C14.095 20.935 14.869 19.262 16.46 19.262C18.077 19.262 18.895 21.0011 18.895 24.4221C18.895 27.9141 18.0691 29.7561 16.5031 29.7561Z" fill="black" fill-opacity="0.5"/>
<path d="M39.988 17.0449L39.971 17H37.004L33.0161 31.918L33 32H35.927L36.724 28.77H40.268L41.015 32H44L39.988 17.0449ZM38.467 20.5669C38.648 21.7179 38.952 23.155 39.257 24.552L39.724 26.512H37.201L37.669 24.574C38.023 23.049 38.295 21.6439 38.467 20.5669Z" fill="black" fill-opacity="0.5"/>
<path d="M112.913 17L111 21.5759L109.103 17.0371L109.087 17H106L109.464 24.291L106.048 31.9109L106.008 32H109.087L111 27.2439L112.913 32H115.993L112.543 24.291L116 17H112.913Z" fill="black" fill-opacity="0.5"/>
<path d="M153.742 17H149V32H151.96V26.542H153.501C157.305 26.542 159 24.1339 159 21.7419C159 18.6819 157.133 17 153.742 17ZM153.502 24.2019H151.961V19.2141H153.716C155.274 19.2141 156.066 20.0741 156.066 21.7561C156.066 22.8861 155.394 24.2019 153.501 24.2019" fill="black" fill-opacity="0.5"/>
<path d="M128 19.3401H131.103V32H133.882V19.3401H137V17H128V19.3401Z" fill="black" fill-opacity="0.5"/>
<path d="M142.517 17C138.957 17 137 19.6381 137 24.4131C137 29.2321 138.991 32 142.465 32C145.984 32 148 29.216 148 24.376C148 19.624 146.052 17 142.517 17ZM142.517 29.74C140.93 29.74 140.095 27.887 140.095 24.376C140.095 20.932 140.871 19.261 142.465 19.261C144.087 19.261 144.905 20.9971 144.905 24.4131C144.905 27.9011 144.077 29.74 142.517 29.74Z" fill="black" fill-opacity="0.5"/>
<path d="M122.165 24.1641L120.098 17.0449L120.081 17H117L120.725 28.3669C120.565 29.0169 119.937 29.697 118.673 29.697H118.601V32H118.673C121.031 32 122.471 31.043 123.203 28.98L126.975 17.082L127 17H124.015L122.165 24.1641Z" fill="black" fill-opacity="0.5"/>
<path d="M70.1072 22.9442C69.1632 12.5002 68.7323 11.5711 66.2473 10.2491C63.2913 8.67711 55.0113 15.0592 55.0113 15.0592C51.2623 17.3812 47.4653 19.96 47.0523 22.856C46.6413 25.752 48.5333 26.4141 57.0843 32.5311C65.6363 38.6471 68.1913 38.5972 69.9993 37.2972C71.6343 36.1202 70.9662 32.4502 70.1072 22.9442ZM66.3033 33.0321C65.0053 33.0161 61.0573 30.49 57.3633 27.982C54.1593 25.805 51.0002 24.0001 51.0002 22.1351C51.0002 20.8201 51.5433 20.1422 56.2333 16.8812C59.9353 14.3062 61.5023 13.2111 63.1023 14.2931C64.7023 15.3751 65.3982 19.8591 66.2972 24.9771C67.1962 30.0951 67.7913 33.0491 66.3033 33.0321Z" fill="black" fill-opacity="0.5"/>
<path d="M78.486 4.47C73.332 0.367995 73.142 0.0140248 70.496 2.47769e-05C67.851 -0.0129752 66.647 5.09402 66.647 5.09402C66.647 5.09402 64.357 14.079 62.661 21.242C60.966 28.405 63.066 28.6861 63.066 28.6861C64.573 30.2931 70.266 25.2119 70.266 25.2119L81.614 14.9431C81.614 14.9431 84.959 12.279 84.999 10.791C85.039 9.30104 83.642 8.57102 78.486 4.46902V4.47ZM79.349 12.782C78.909 14.318 76.054 16.9161 73.494 19.2041C70.776 21.6321 66.397 26.5311 64.834 25.4251C63.767 24.6681 66.4 19.163 68.131 14.5C69.977 9.53003 70.463 5.98494 71.978 5.78494C72.868 5.66694 74.404 7.18996 76.115 8.65896C77.827 10.129 79.757 11.356 79.349 12.782Z" fill="black" fill-opacity="0.5"/>
<path d="M59.7402 6.09794L47.2322 5.04716C44.4992 4.81616 42.6992 5.4331 42.1252 7.1121C41.5252 8.8591 43.2772 10.5682 43.2772 10.5682L52.8902 20.7561C53.6792 21.6121 55.4582 24.001 57.5202 24C58.9132 24 59.9802 22.9491 60.2362 21.3931C62.2232 9.28811 61.7132 12.5089 61.9772 9.37992C62.2642 5.97792 59.7412 6.09794 59.7412 6.09794H59.7402ZM57.8212 20.5081C57.1412 20.7671 56.3972 20.531 52.7982 16.323C49.1982 12.115 47.6432 10.8101 48.0382 9.65312C48.0382 9.65312 48.1242 8.85293 50.7452 8.85893C53.1832 8.86293 57.8932 9.10307 57.8932 9.10307C57.8932 9.10307 60.1662 9.04299 60.0242 11.075C59.8342 13.815 58.6042 20.2081 57.8212 20.5071" fill="black" fill-opacity="0.5"/>
<path d="M84.9578 17.84C82.2308 16.168 74.5358 11.4499 72.8748 12.0529C71.0108 12.7289 72.5899 18.961 73.3499 23.111C74.1089 27.262 74.3639 33.6428 77.5749 34.8378C79.9929 35.7378 84.3828 32.6379 86.3018 31.5509C88.2208 30.4659 94.9878 26.982 94.9998 24.986C95.0098 23.036 88.0208 19.718 84.9578 17.84ZM86.6529 27.4318C85.5409 28.2858 85.4249 28.225 83.7799 29.133C82.1349 30.042 78.8149 32.0628 77.6919 27.7628C76.2049 22.4558 73.8558 15.9799 74.8018 15.2409C75.4378 14.7439 77.8799 16.531 84.2859 20.538C89.3709 23.72 88.8759 25.7238 86.6529 27.4318Z" fill="black" fill-opacity="0.5"/>
<path d="M100.968 19.4419C100.968 19.4419 100.95 20.0699 100.389 13.2319C99.8282 6.39393 98.8112 3 95.8742 3C92.9372 3 90.5872 5.48792 84.7492 12.9929C77.5692 22.2219 76.6652 23.577 77.0862 25.833C77.5082 28.091 83.9662 26.377 83.9662 26.377C83.9662 26.377 93.9562 23.9579 97.7532 22.9929C101.548 22.0269 100.968 19.4419 100.968 19.4419ZM94.3222 22.0559C90.8602 23.1479 81.6312 26.2829 80.8462 24.2319C80.4922 23.3049 82.3062 21.135 85.9202 16.707C91.4402 9.94503 91.9952 9.22093 93.1252 9.23193C94.5762 9.24793 95.1402 12.9799 95.6792 15.3279C96.2432 17.7829 97.7832 20.9639 94.3222 22.0559Z" fill="black" fill-opacity="0.5"/>
</svg>
