<svg width="145" height="27" viewBox="0 0 145 27" fill="none" xmlns="http://www.w3.org/2000/svg">
<path d="M94.8077 13.3834C94.792 8.44895 98.7662 4.47146 103.731 4.46143C108.579 4.47146 112.558 8.44895 112.654 13.3834C112.558 18.2599 108.579 22.2395 103.731 22.3076C98.7662 22.2395 94.792 18.2599 94.8077 13.3834ZM103.731 19.0194C106.411 18.9782 108.633 16.4596 108.661 13.3834C108.633 10.247 106.411 7.72735 103.731 7.74631C100.938 7.72735 98.7138 10.247 98.8008 13.3834C98.7138 16.4596 100.938 18.9782 103.731 19.0194Z" fill="black" fill-opacity="0.5"/>
<path d="M123.038 7.52438V21.1922H119.238V7.52438H113.77V4.46143H128.27V7.52438H123.038Z" fill="black" fill-opacity="0.5"/>
<path d="M132.034 17.4188L130.599 21.1922H126.038L133.239 4.46143H138.037L145 21.1922H140.441L139 17.4188H132.034ZM135.638 14.5914H138.037L135.639 8.46467L133.239 14.5914H135.638Z" fill="black" fill-opacity="0.5"/>
<path d="M54.2079 7.52438V21.1922H50.6387V7.52438H45.731V4.46143H59.1156V7.52438H54.2079Z" fill="black" fill-opacity="0.5"/>
<path d="M60.2305 13.3834C60.2303 12.2118 60.461 11.0516 60.9092 9.96918C61.3575 8.88673 62.0146 7.90329 62.8429 7.07479C63.6713 6.2463 64.6548 5.58895 65.7372 5.14057C66.8196 4.69218 67.9797 4.46143 69.1513 4.46143C74.0255 4.47146 78.0052 8.44895 78.0766 13.3834C78.0052 18.2599 74.0266 22.2395 69.1513 22.3076C64.2124 22.2395 60.2383 18.2599 60.2305 13.3834ZM69.1513 19.0194C71.8617 18.9782 74.0824 16.4596 74.0835 13.3834C74.0824 10.247 71.8628 7.72735 69.1513 7.74631C66.3818 7.72735 64.1611 10.247 64.2236 13.3834C64.1611 16.4596 66.3818 18.9782 69.1513 19.0194Z" fill="black" fill-opacity="0.5"/>
<path d="M86.4435 21.1917H88.3018V14.8273L94.8089 4.46094H90.6284L86.4446 11.5279L82.4928 4.46094H78.0781L84.5864 14.8273V21.1917H86.4435Z" fill="black" fill-opacity="0.5"/>
<path d="M21.1923 0C32.8782 0 42.3846 6.00412 42.3846 13.3846C42.3846 20.7651 32.8782 26.7692 21.1923 26.7692C9.50642 26.7692 0 20.7651 0 13.3846C0 6.00412 9.50642 0 21.1923 0ZM32.0841 5.83126C31.5498 4.30095 28.0296 3.03058 23.4777 2.70377C24.8619 3.98089 25.9316 6.3879 26.4346 9.40725C29.2867 8.89975 31.3512 7.97067 31.9658 6.90771C32.0918 6.68798 32.1554 6.4658 32.1554 6.24272C32.1554 6.10553 32.1309 5.96848 32.0841 5.83017V5.83126ZM21.1867 5.71635C20.1026 5.71635 19.1567 7.26352 18.7005 9.75417C20.3558 9.87575 22.0177 9.87575 23.6729 9.75417C23.2156 7.26352 22.2698 5.71635 21.1867 5.71635ZM10.3006 5.83126C10.2537 5.96343 10.2296 6.10248 10.2292 6.24272C10.2292 6.4658 10.2917 6.68909 10.4188 6.90771C11.0323 7.97067 13.098 8.89977 15.9489 9.40616C16.4531 6.38793 17.5216 3.97977 18.9058 2.70377C14.355 3.03058 10.8348 4.30095 10.3006 5.83126ZM3.71091 13.581C3.71091 18.917 10.1433 23.4375 18.7184 24.1804C16.7966 22.2909 15.6109 18.251 15.6109 13.5006L15.6254 12.721C10.8292 11.8287 7.51322 9.81864 6.87857 7.43953C4.80953 9.24645 3.71091 11.3669 3.71091 13.581ZM18.4139 13.1014C18.4139 17.2551 19.6341 20.5074 21.1923 20.5074C22.7505 20.5074 23.9696 17.2551 23.9696 13.1014V13.0924C22.121 13.2498 20.2624 13.2498 18.4139 13.0924V13.1014ZM23.6551 24.1804C32.2302 23.4375 38.6637 18.917 38.6637 13.581C38.6637 11.3669 37.5639 9.24757 35.4949 7.43953C34.8602 9.81864 31.5431 11.8287 26.7481 12.721L26.7614 13.5006C26.7614 18.2522 25.5758 22.2909 23.6551 24.1804Z" fill="black" fill-opacity="0.5"/>
</svg>
